<svg width="32" height="32" viewBox="0 0 32 32" fill="none" xmlns="http://www.w3.org/2000/svg">
<path d="M19.8085 25.2709C20.8738 25.0545 21.6755 24.1126 21.6755 22.9834C21.6755 21.6942 20.6304 20.6491 19.3412 20.6491H16.9767M19.8085 25.2709C19.6575 25.3016 19.5012 25.3177 19.3412 25.3177H18.9934V26.4354C19.3908 26.3609 20.26 26.346 20.558 26.8824C20.856 27.4189 20.8643 27.851 20.8312 28H12.9127M19.8085 25.2709L21.3031 25.6904C21.621 25.8294 22.7032 27.3957 23.1999 28C23.1999 28 24.3677 28 25.0578 28C25.164 26.5477 24.2753 26.5478 23.7123 26.0345L23.8452 17.8135C23.8452 16.7395 23.8452 16.6941 23.8452 16.4295C23.8452 16.165 23.3375 13.6468 23.1999 13.4785C22.7985 10.7115 25.2565 12.2282 25.1776 10.4666C25.5262 10.0703 24.3139 8.31477 23.7123 7.6603C23.9362 7.10819 23.54 4.99006 23.314 4L21.1851 6.17141C21.1749 6.17127 21.1646 6.1712 21.1544 6.1712C20.7975 6.1712 20.4472 6.21971 20.1121 6.3107C20.0279 5.40197 19.756 3.704 19.3412 4.18189C18.9264 4.65979 17.9651 7.29182 17.5363 8.5481C17.3869 8.92783 17.3045 9.33912 17.3045 9.77125C17.3045 10.8309 17.0743 12.1646 17.4831 13.1976H17.4537C13.284 13.1976 9.90378 16.4019 9.90378 20.3547C9.90378 22.3858 11.4792 24.858 12.9127 26.1607V28M12.9127 28C10.7459 27.9507 7.75373 27.7549 6.9439 22.9834C6.29628 19.1676 7.33137 17.5335 10.6043 14.2606C12.1075 12.7575 13.4552 10.5374 11.4423 8.5481" stroke="black" stroke-linecap="round" stroke-linejoin="round"/>
</svg>
