<svg width="96" height="24" viewBox="0 0 96 24" fill="none" xmlns="http://www.w3.org/2000/svg">
<rect x="0.5" y="0.5" width="94.84" height="23" stroke="black"/>
<path d="M8.96739 9.16C9.57406 9.16 10.1154 9.286 10.5914 9.538C11.0767 9.79 11.4547 10.1633 11.7254 10.658C11.9961 11.1527 12.1314 11.75 12.1314 12.45V17H10.5494V12.688C10.5494 11.9973 10.3767 11.47 10.0314 11.106C9.68606 10.7327 9.21472 10.546 8.61739 10.546C8.02006 10.546 7.54406 10.7327 7.18939 11.106C6.84406 11.47 6.67139 11.9973 6.67139 12.688V17H5.07539V9.286H6.67139V10.168C6.93272 9.85067 7.26406 9.60333 7.66539 9.426C8.07606 9.24867 8.51006 9.16 8.96739 9.16ZM21.2372 12.954C21.2372 13.2433 21.2185 13.5047 21.1812 13.738H15.2872C15.3339 14.354 15.5625 14.8487 15.9732 15.222C16.3839 15.5953 16.8879 15.782 17.4852 15.782C18.3439 15.782 18.9505 15.4227 19.3052 14.704H21.0272C20.7939 15.4133 20.3692 15.9967 19.7532 16.454C19.1465 16.902 18.3905 17.126 17.4852 17.126C16.7479 17.126 16.0852 16.9627 15.4972 16.636C14.9185 16.3 14.4612 15.8333 14.1252 15.236C13.7985 14.6293 13.6352 13.9293 13.6352 13.136C13.6352 12.3427 13.7939 11.6473 14.1112 11.05C14.4379 10.4433 14.8905 9.97667 15.4692 9.65C16.0572 9.32333 16.7292 9.16 17.4852 9.16C18.2132 9.16 18.8619 9.31867 19.4312 9.636C20.0005 9.95333 20.4439 10.4013 20.7612 10.98C21.0785 11.5493 21.2372 12.2073 21.2372 12.954ZM19.5712 12.45C19.5619 11.862 19.3519 11.3907 18.9412 11.036C18.5305 10.6813 18.0219 10.504 17.4152 10.504C16.8645 10.504 16.3932 10.6813 16.0012 11.036C15.6092 11.3813 15.3759 11.8527 15.3012 12.45H19.5712ZM25.7898 15.572L27.9738 9.286H29.6678L26.7278 17H24.8238L21.8978 9.286H23.6058L25.7898 15.572ZM30.3422 13.108C30.3422 12.3333 30.5009 11.6473 30.8182 11.05C31.1449 10.4527 31.5836 9.99067 32.1342 9.664C32.6942 9.328 33.3102 9.16 33.9822 9.16C34.5889 9.16 35.1162 9.28133 35.5642 9.524C36.0216 9.75733 36.3856 10.0513 36.6562 10.406V9.286H38.2662V17H36.6562V15.852C36.3856 16.216 36.0169 16.5193 35.5502 16.762C35.0836 17.0047 34.5516 17.126 33.9542 17.126C33.2916 17.126 32.6849 16.958 32.1342 16.622C31.5836 16.2767 31.1449 15.8007 30.8182 15.194C30.5009 14.578 30.3422 13.8827 30.3422 13.108ZM36.6562 13.136C36.6562 12.604 36.5442 12.142 36.3202 11.75C36.1056 11.358 35.8209 11.0593 35.4662 10.854C35.1116 10.6487 34.7289 10.546 34.3182 10.546C33.9076 10.546 33.5249 10.6487 33.1702 10.854C32.8156 11.05 32.5262 11.344 32.3022 11.736C32.0876 12.1187 31.9802 12.576 31.9802 13.108C31.9802 13.64 32.0876 14.1067 32.3022 14.508C32.5262 14.9093 32.8156 15.2173 33.1702 15.432C33.5342 15.6373 33.9169 15.74 34.3182 15.74C34.7289 15.74 35.1116 15.6373 35.4662 15.432C35.8209 15.2267 36.1056 14.928 36.3202 14.536C36.5442 14.1347 36.6562 13.668 36.6562 13.136ZM39.8305 13.108C39.8305 12.3333 39.9892 11.6473 40.3065 11.05C40.6332 10.4527 41.0718 9.99067 41.6225 9.664C42.1825 9.328 42.8032 9.16 43.4845 9.16C43.9885 9.16 44.4832 9.272 44.9685 9.496C45.4632 9.71067 45.8552 10 46.1445 10.364V6.64H47.7545V17H46.1445V15.838C45.8832 16.2113 45.5192 16.5193 45.0525 16.762C44.5952 17.0047 44.0678 17.126 43.4705 17.126C42.7985 17.126 42.1825 16.958 41.6225 16.622C41.0718 16.2767 40.6332 15.8007 40.3065 15.194C39.9892 14.578 39.8305 13.8827 39.8305 13.108ZM46.1445 13.136C46.1445 12.604 46.0325 12.142 45.8085 11.75C45.5938 11.358 45.3092 11.0593 44.9545 10.854C44.5998 10.6487 44.2172 10.546 43.8065 10.546C43.3958 10.546 43.0132 10.6487 42.6585 10.854C42.3038 11.05 42.0145 11.344 41.7905 11.736C41.5758 12.1187 41.4685 12.576 41.4685 13.108C41.4685 13.64 41.5758 14.1067 41.7905 14.508C42.0145 14.9093 42.3038 15.2173 42.6585 15.432C43.0225 15.6373 43.4052 15.74 43.8065 15.74C44.2172 15.74 44.5998 15.6373 44.9545 15.432C45.3092 15.2267 45.5938 14.928 45.8085 14.536C46.0325 14.1347 46.1445 13.668 46.1445 13.136ZM53.1968 17.126C52.4688 17.126 51.8108 16.9627 51.2228 16.636C50.6348 16.3 50.1728 15.8333 49.8368 15.236C49.5008 14.6293 49.3328 13.9293 49.3328 13.136C49.3328 12.352 49.5054 11.6567 49.8508 11.05C50.1961 10.4433 50.6674 9.97667 51.2648 9.65C51.8621 9.32333 52.5294 9.16 53.2668 9.16C54.0041 9.16 54.6714 9.32333 55.2688 9.65C55.8661 9.97667 56.3374 10.4433 56.6828 11.05C57.0281 11.6567 57.2008 12.352 57.2008 13.136C57.2008 13.92 57.0234 14.6153 56.6688 15.222C56.3141 15.8287 55.8288 16.3 55.2128 16.636C54.6061 16.9627 53.9341 17.126 53.1968 17.126ZM53.1968 15.74C53.6074 15.74 53.9901 15.642 54.3448 15.446C54.7088 15.25 55.0028 14.956 55.2268 14.564C55.4508 14.172 55.5628 13.696 55.5628 13.136C55.5628 12.576 55.4554 12.1047 55.2408 11.722C55.0261 11.33 54.7414 11.036 54.3868 10.84C54.0321 10.644 53.6494 10.546 53.2388 10.546C52.8281 10.546 52.4454 10.644 52.0908 10.84C51.7454 11.036 51.4701 11.33 51.2648 11.722C51.0594 12.1047 50.9568 12.576 50.9568 13.136C50.9568 13.9667 51.1668 14.6107 51.5868 15.068C52.0161 15.516 52.5528 15.74 53.1968 15.74ZM59.4225 17.098C59.1332 17.098 58.8905 17 58.6945 16.804C58.4985 16.608 58.4005 16.3653 58.4005 16.076C58.4005 15.7867 58.4985 15.544 58.6945 15.348C58.8905 15.152 59.1332 15.054 59.4225 15.054C59.7025 15.054 59.9405 15.152 60.1365 15.348C60.3325 15.544 60.4305 15.7867 60.4305 16.076C60.4305 16.3653 60.3325 16.608 60.1365 16.804C59.9405 17 59.7025 17.098 59.4225 17.098ZM61.6235 13.136C61.6235 12.3427 61.7821 11.6473 62.0995 11.05C62.4261 10.4433 62.8741 9.97667 63.4435 9.65C64.0128 9.32333 64.6661 9.16 65.4035 9.16C66.3368 9.16 67.1068 9.384 67.7135 9.832C68.3295 10.2707 68.7448 10.9007 68.9595 11.722H67.2375C67.0975 11.3393 66.8735 11.0407 66.5655 10.826C66.2575 10.6113 65.8701 10.504 65.4035 10.504C64.7501 10.504 64.2275 10.7373 63.8355 11.204C63.4528 11.6613 63.2615 12.3053 63.2615 13.136C63.2615 13.9667 63.4528 14.6153 63.8355 15.082C64.2275 15.5487 64.7501 15.782 65.4035 15.782C66.3275 15.782 66.9388 15.376 67.2375 14.564H68.9595C68.7355 15.348 68.3155 15.9733 67.6995 16.44C67.0835 16.8973 66.3181 17.126 65.4035 17.126C64.6661 17.126 64.0128 16.9627 63.4435 16.636C62.8741 16.3 62.4261 15.8333 62.0995 15.236C61.7821 14.6293 61.6235 13.9293 61.6235 13.136ZM73.896 17.126C73.168 17.126 72.51 16.9627 71.922 16.636C71.334 16.3 70.872 15.8333 70.536 15.236C70.2 14.6293 70.032 13.9293 70.032 13.136C70.032 12.352 70.2047 11.6567 70.55 11.05C70.8953 10.4433 71.3667 9.97667 71.964 9.65C72.5613 9.32333 73.2287 9.16 73.966 9.16C74.7033 9.16 75.3707 9.32333 75.968 9.65C76.5653 9.97667 77.0367 10.4433 77.382 11.05C77.7273 11.6567 77.9 12.352 77.9 13.136C77.9 13.92 77.7227 14.6153 77.368 15.222C77.0133 15.8287 76.528 16.3 75.912 16.636C75.3053 16.9627 74.6333 17.126 73.896 17.126ZM73.896 15.74C74.3067 15.74 74.6893 15.642 75.044 15.446C75.408 15.25 75.702 14.956 75.926 14.564C76.15 14.172 76.262 13.696 76.262 13.136C76.262 12.576 76.1547 12.1047 75.94 11.722C75.7253 11.33 75.4407 11.036 75.086 10.84C74.7313 10.644 74.3487 10.546 73.938 10.546C73.5273 10.546 73.1447 10.644 72.79 10.84C72.4447 11.036 72.1693 11.33 71.964 11.722C71.7587 12.1047 71.656 12.576 71.656 13.136C71.656 13.9667 71.866 14.6107 72.286 15.068C72.7153 15.516 73.252 15.74 73.896 15.74ZM88.8157 9.16C89.4224 9.16 89.9637 9.286 90.4397 9.538C90.9251 9.79 91.3031 10.1633 91.5737 10.658C91.8537 11.1527 91.9937 11.75 91.9937 12.45V17H90.4117V12.688C90.4117 11.9973 90.2391 11.47 89.8937 11.106C89.5484 10.7327 89.0771 10.546 88.4797 10.546C87.8824 10.546 87.4064 10.7327 87.0517 11.106C86.7064 11.47 86.5337 11.9973 86.5337 12.688V17H84.9517V12.688C84.9517 11.9973 84.7791 11.47 84.4337 11.106C84.0884 10.7327 83.6171 10.546 83.0197 10.546C82.4224 10.546 81.9464 10.7327 81.5917 11.106C81.2464 11.47 81.0737 11.9973 81.0737 12.688V17H79.4777V9.286H81.0737V10.168C81.3351 9.85067 81.6664 9.60333 82.0677 9.426C82.4691 9.24867 82.8984 9.16 83.3557 9.16C83.9717 9.16 84.5224 9.29067 85.0077 9.552C85.4931 9.81333 85.8664 10.1913 86.1277 10.686C86.3611 10.2193 86.7251 9.85067 87.2197 9.58C87.7144 9.3 88.2464 9.16 88.8157 9.16Z" fill="black"/>
</svg>
