<svg width="145" height="32" viewBox="0 0 145 32" fill="none" xmlns="http://www.w3.org/2000/svg">
  <path
    d="M36.8107 24.119C36.2367 24.119 35.7234 24.035 35.2707 23.867C34.8227 23.699 34.4657 23.44 34.1997 23.09C33.9384 22.7353 33.7937 22.2827 33.7657 21.732H35.3617C35.4224 22.124 35.5787 22.4017 35.8307 22.565C36.0874 22.7283 36.4024 22.81 36.7757 22.81C37.0464 22.81 37.2867 22.7843 37.4967 22.733C37.7114 22.677 37.8794 22.586 38.0007 22.46C38.1267 22.3293 38.1897 22.1543 38.1897 21.935C38.1897 21.781 38.1547 21.655 38.0847 21.557C38.0194 21.4543 37.9167 21.3657 37.7767 21.291C37.6414 21.2163 37.4687 21.1463 37.2587 21.081C37.0534 21.0157 36.8154 20.9433 36.5447 20.864C36.0594 20.724 35.6184 20.5583 35.2217 20.367C34.8251 20.1757 34.5101 19.926 34.2767 19.618C34.0434 19.3053 33.9267 18.8993 33.9267 18.4C33.9267 17.7187 34.1787 17.1867 34.6827 16.804C35.1867 16.4167 35.8354 16.223 36.6287 16.223C37.1421 16.223 37.6041 16.2977 38.0147 16.447C38.4301 16.5917 38.7707 16.8343 39.0367 17.175C39.3027 17.511 39.4754 17.9683 39.5547 18.547L37.9587 18.54C37.8887 18.2693 37.7861 18.0617 37.6507 17.917C37.5154 17.7677 37.3591 17.665 37.1817 17.609C37.0091 17.5483 36.8201 17.518 36.6147 17.518C36.3907 17.518 36.1971 17.553 36.0337 17.623C35.8704 17.693 35.7444 17.791 35.6557 17.917C35.5671 18.043 35.5227 18.1947 35.5227 18.372C35.5227 18.5773 35.5811 18.75 35.6977 18.89C35.8191 19.0253 35.9987 19.1443 36.2367 19.247C36.4794 19.345 36.7804 19.4477 37.1397 19.555C37.4291 19.639 37.7277 19.7323 38.0357 19.835C38.3437 19.933 38.6307 20.059 38.8967 20.213C39.1627 20.367 39.3774 20.5723 39.5407 20.829C39.7041 21.081 39.7857 21.41 39.7857 21.816C39.7857 22.5393 39.5127 23.104 38.9667 23.51C38.4254 23.916 37.7067 24.119 36.8107 24.119ZM43.6068 24.112C43.0001 24.112 42.5264 23.958 42.1858 23.65C41.8498 23.3373 41.6818 22.8917 41.6818 22.313V18.449C41.6818 18.295 41.7144 18.1573 41.7798 18.036C41.8451 17.91 41.9408 17.8307 42.0667 17.798L41.6818 16.664V16.461L42.0528 14.172H43.3128V21.9C43.3128 22.1707 43.3711 22.3597 43.4878 22.467C43.6091 22.5743 43.8331 22.628 44.1598 22.628C44.3698 22.628 44.5634 22.628 44.7408 22.628C44.9181 22.6233 45.0791 22.6187 45.2238 22.614V24.021C44.9811 24.063 44.7151 24.0887 44.4258 24.098C44.1364 24.1073 43.8634 24.112 43.6068 24.112ZM40.6807 17.798V16.356H45.2378V17.798H40.6807ZM49.7071 24.105C48.9698 24.105 48.3305 23.9557 47.7891 23.657C47.2525 23.3537 46.8395 22.908 46.5501 22.32C46.2608 21.732 46.1161 21.011 46.1161 20.157C46.1161 19.3263 46.2678 18.617 46.5711 18.029C46.8791 17.4363 47.3015 16.986 47.8381 16.678C48.3748 16.3653 48.9908 16.209 49.6861 16.209C50.3721 16.209 50.9578 16.3443 51.4431 16.615C51.9331 16.8857 52.3065 17.287 52.5631 17.819C52.8198 18.3463 52.9481 18.995 52.9481 19.765C52.9481 19.9143 52.9435 20.038 52.9341 20.136C52.9295 20.234 52.9225 20.3507 52.9131 20.486H47.7611C47.8031 21.2653 47.9945 21.8393 48.3351 22.208C48.6758 22.572 49.0935 22.754 49.5881 22.754C50.0501 22.754 50.4025 22.656 50.6451 22.46C50.8925 22.2593 51.0511 22.0353 51.1211 21.788H52.7171C52.6751 22.278 52.5211 22.698 52.2551 23.048C51.9891 23.3933 51.6368 23.657 51.1981 23.839C50.7641 24.0163 50.2671 24.105 49.7071 24.105ZM48.5171 19.359H51.3031C51.2891 18.799 51.1538 18.3673 50.8971 18.064C50.6405 17.756 50.2181 17.602 49.6301 17.602C49.0188 17.602 48.5638 17.8073 48.2651 18.218C47.9665 18.624 47.7985 19.1863 47.7611 19.905C47.7985 19.695 47.8778 19.5527 47.9991 19.478C48.1205 19.3987 48.2931 19.359 48.5171 19.359ZM58.1034 24.084C57.5994 24.084 57.1981 24 56.8994 23.832C56.6008 23.664 56.3814 23.468 56.2414 23.244C56.1014 23.0153 56.0128 22.8147 55.9754 22.642L55.4154 22.67L56.0664 22.117C56.0991 22.2337 56.1714 22.348 56.2834 22.46C56.3954 22.5673 56.5588 22.656 56.7734 22.726C56.9881 22.7913 57.2518 22.824 57.5644 22.824C58.0871 22.824 58.5164 22.621 58.8524 22.215C59.1931 21.809 59.3634 21.13 59.3634 20.178C59.3634 19.3567 59.2048 18.7267 58.8874 18.288C58.5701 17.8447 58.1641 17.623 57.6694 17.623C57.3194 17.623 57.0301 17.672 56.8014 17.77C56.5774 17.868 56.4071 17.9823 56.2904 18.113C56.1738 18.2437 56.0991 18.3603 56.0664 18.463V17.938C56.0758 17.784 56.1154 17.6113 56.1854 17.42C56.2601 17.224 56.3791 17.035 56.5424 16.853C56.7104 16.6663 56.9298 16.5147 57.2004 16.398C57.4758 16.2767 57.8164 16.216 58.2224 16.216C58.8384 16.216 59.3564 16.3817 59.7764 16.713C60.1964 17.0443 60.5138 17.4993 60.7284 18.078C60.9478 18.652 61.0574 19.3053 61.0574 20.038C61.0574 20.7147 60.9734 21.3073 60.8054 21.816C60.6421 22.32 60.4181 22.74 60.1334 23.076C59.8534 23.412 59.5384 23.664 59.1884 23.832C58.8384 24 58.4768 24.084 58.1034 24.084ZM54.4214 26.821V16.356H56.0454L56.0664 17.413V22.18L55.9754 22.642L56.0664 24.007V26.821H54.4214ZM62.6519 24V13.108H64.2899V16.363L64.1779 18.54L64.2409 19.156L64.1569 18.659C64.2129 18.239 64.3202 17.8423 64.4789 17.469C64.6422 17.091 64.8872 16.7853 65.2139 16.552C65.5452 16.3187 65.9886 16.202 66.5439 16.202C67.2672 16.202 67.8249 16.4283 68.2169 16.881C68.6136 17.329 68.8119 18.015 68.8119 18.939V24H67.1529V19.513C67.1529 18.8643 67.0572 18.4 66.8659 18.12C66.6746 17.84 66.3316 17.7 65.8369 17.7C65.4962 17.7 65.1882 17.8143 64.9129 18.043C64.6422 18.267 64.4369 18.5167 64.2969 18.792V24H62.6519ZM72.7517 24.084C72.285 24.084 71.872 23.9977 71.5127 23.825C71.1534 23.6477 70.871 23.4027 70.6657 23.09C70.465 22.7773 70.3647 22.4157 70.3647 22.005C70.3647 21.5523 70.4464 21.179 70.6097 20.885C70.773 20.591 71.0087 20.3577 71.3167 20.185C71.6294 20.0077 71.9957 19.8723 72.4157 19.779C72.7144 19.7137 73.0294 19.66 73.3607 19.618C73.6967 19.576 74.007 19.5433 74.2917 19.52C74.5764 19.492 74.7957 19.4733 74.9497 19.464V19.156C74.9497 18.638 74.8447 18.2507 74.6347 17.994C74.4294 17.7327 74.0794 17.602 73.5847 17.602C73.2674 17.602 73.0014 17.6417 72.7867 17.721C72.572 17.7957 72.4087 17.9403 72.2967 18.155C72.1894 18.365 72.131 18.673 72.1217 19.079H70.6167C70.5654 18.421 70.6587 17.882 70.8967 17.462C71.1394 17.0373 71.4987 16.7247 71.9747 16.524C72.4554 16.3187 73.0224 16.216 73.6757 16.216C74.063 16.216 74.427 16.2603 74.7677 16.349C75.113 16.433 75.4187 16.58 75.6847 16.79C75.9507 16.9953 76.1607 17.2777 76.3147 17.637C76.4687 17.9963 76.5457 18.4513 76.5457 19.002V24H74.9287L74.9497 22.285C74.861 22.803 74.637 23.2323 74.2777 23.573C73.9184 23.9137 73.4097 24.084 72.7517 24.084ZM73.1927 22.838C73.4354 22.838 73.6804 22.796 73.9277 22.712C74.1797 22.628 74.399 22.5067 74.5857 22.348C74.777 22.1893 74.8984 22.0027 74.9497 21.788V20.388C74.763 20.4067 74.5414 20.4393 74.2847 20.486C74.0327 20.5327 73.8157 20.5747 73.6337 20.612C73.111 20.7193 72.733 20.8617 72.4997 21.039C72.271 21.2117 72.1567 21.4777 72.1567 21.837C72.1567 22.0423 72.2034 22.222 72.2967 22.376C72.3947 22.5253 72.523 22.6397 72.6817 22.719C72.8404 22.7983 73.0107 22.838 73.1927 22.838ZM78.5933 24V16.356H80.0073L80.1893 19.24L80.0703 18.659C80.1263 18.239 80.236 17.8423 80.3993 17.469C80.5673 17.091 80.817 16.7853 81.1483 16.552C81.4796 16.3187 81.923 16.202 82.4783 16.202C83.2016 16.202 83.7616 16.4283 84.1583 16.881C84.555 17.329 84.7533 18.015 84.7533 18.939V24H83.1013V19.513C83.1013 19.0743 83.057 18.722 82.9683 18.456C82.8843 18.19 82.7466 17.9987 82.5553 17.882C82.364 17.7607 82.1096 17.7 81.7923 17.7C81.447 17.7 81.132 17.8027 80.8473 18.008C80.5673 18.2087 80.3666 18.4373 80.2453 18.694V24H78.5933ZM86.8104 24V16.356H88.4834L88.4624 24H86.8104ZM87.6574 15.229C87.3541 15.229 87.0974 15.124 86.8874 14.914C86.6774 14.6993 86.5724 14.4263 86.5724 14.095C86.5724 13.7683 86.6774 13.5023 86.8874 13.297C87.0974 13.0917 87.3541 12.989 87.6574 12.989C87.9514 12.989 88.2034 13.0917 88.4134 13.297C88.6281 13.5023 88.7354 13.7683 88.7354 14.095C88.7354 14.4263 88.6281 14.6993 88.4134 14.914C88.2034 15.124 87.9514 15.229 87.6574 15.229ZM92.4802 24.084C92.0135 24.084 91.6005 23.9977 91.2412 23.825C90.8819 23.6477 90.5995 23.4027 90.3942 23.09C90.1935 22.7773 90.0932 22.4157 90.0932 22.005C90.0932 21.5523 90.1749 21.179 90.3382 20.885C90.5015 20.591 90.7372 20.3577 91.0452 20.185C91.3579 20.0077 91.7242 19.8723 92.1442 19.779C92.4429 19.7137 92.7579 19.66 93.0892 19.618C93.4252 19.576 93.7355 19.5433 94.0202 19.52C94.3049 19.492 94.5242 19.4733 94.6782 19.464V19.156C94.6782 18.638 94.5732 18.2507 94.3632 17.994C94.1579 17.7327 93.8079 17.602 93.3132 17.602C92.9959 17.602 92.7299 17.6417 92.5152 17.721C92.3005 17.7957 92.1372 17.9403 92.0252 18.155C91.9179 18.365 91.8595 18.673 91.8502 19.079H90.3452C90.2939 18.421 90.3872 17.882 90.6252 17.462C90.8679 17.0373 91.2272 16.7247 91.7032 16.524C92.1839 16.3187 92.7509 16.216 93.4042 16.216C93.7915 16.216 94.1555 16.2603 94.4962 16.349C94.8415 16.433 95.1472 16.58 95.4132 16.79C95.6792 16.9953 95.8892 17.2777 96.0432 17.637C96.1972 17.9963 96.2742 18.4513 96.2742 19.002V24H94.6572L94.6782 22.285C94.5895 22.803 94.3655 23.2323 94.0062 23.573C93.6469 23.9137 93.1382 24.084 92.4802 24.084ZM92.9212 22.838C93.1639 22.838 93.4089 22.796 93.6562 22.712C93.9082 22.628 94.1275 22.5067 94.3142 22.348C94.5055 22.1893 94.6269 22.0027 94.6782 21.788V20.388C94.4915 20.4067 94.2699 20.4393 94.0132 20.486C93.7612 20.5327 93.5442 20.5747 93.3622 20.612C92.8395 20.7193 92.4615 20.8617 92.2282 21.039C91.9995 21.2117 91.8852 21.4777 91.8852 21.837C91.8852 22.0423 91.9319 22.222 92.0252 22.376C92.1232 22.5253 92.2515 22.6397 92.4102 22.719C92.5689 22.7983 92.7392 22.838 92.9212 22.838ZM98.3218 24V16.356H99.7358L99.9178 19.24L99.7988 18.659C99.8548 18.239 99.9645 17.8423 100.128 17.469C100.296 17.091 100.545 16.7853 100.877 16.552C101.208 16.3187 101.651 16.202 102.207 16.202C102.93 16.202 103.49 16.4283 103.887 16.881C104.283 17.329 104.482 18.015 104.482 18.939V24H102.83V19.513C102.83 19.0743 102.785 18.722 102.697 18.456C102.613 18.19 102.475 17.9987 102.284 17.882C102.092 17.7607 101.838 17.7 101.521 17.7C101.175 17.7 100.86 17.8027 100.576 18.008C100.296 18.2087 100.095 18.4373 99.9738 18.694V24H98.3218ZM109.604 24.105C108.866 24.105 108.227 23.9557 107.686 23.657C107.149 23.3537 106.736 22.908 106.447 22.32C106.157 21.732 106.013 21.011 106.013 20.157C106.013 19.3263 106.164 18.617 106.468 18.029C106.776 17.4363 107.198 16.986 107.735 16.678C108.271 16.3653 108.887 16.209 109.583 16.209C110.269 16.209 110.854 16.3443 111.34 16.615C111.83 16.8857 112.203 17.287 112.46 17.819C112.716 18.3463 112.845 18.995 112.845 19.765C112.845 19.9143 112.84 20.038 112.831 20.136C112.826 20.234 112.819 20.3507 112.81 20.486H107.658C107.7 21.2653 107.891 21.8393 108.232 22.208C108.572 22.572 108.99 22.754 109.485 22.754C109.947 22.754 110.299 22.656 110.542 22.46C110.789 22.2593 110.948 22.0353 111.018 21.788H112.614C112.572 22.278 112.418 22.698 112.152 23.048C111.886 23.3933 111.533 23.657 111.095 23.839C110.661 24.0163 110.164 24.105 109.604 24.105ZM108.414 19.359H111.2C111.186 18.799 111.05 18.3673 110.794 18.064C110.537 17.756 110.115 17.602 109.527 17.602C108.915 17.602 108.46 17.8073 108.162 18.218C107.863 18.624 107.695 19.1863 107.658 19.905C107.695 19.695 107.774 19.5527 107.896 19.478C108.017 19.3987 108.19 19.359 108.414 19.359ZM116.166 24L113.506 16.363H115.382L116.362 19.905L117.027 22.376H117.09L117.755 19.912L118.735 16.363H120.611L117.951 24H116.166ZM123.638 24.084C123.172 24.084 122.759 23.9977 122.399 23.825C122.04 23.6477 121.758 23.4027 121.552 23.09C121.352 22.7773 121.251 22.4157 121.251 22.005C121.251 21.5523 121.333 21.179 121.496 20.885C121.66 20.591 121.895 20.3577 122.203 20.185C122.516 20.0077 122.882 19.8723 123.302 19.779C123.601 19.7137 123.916 19.66 124.247 19.618C124.583 19.576 124.894 19.5433 125.178 19.52C125.463 19.492 125.682 19.4733 125.836 19.464V19.156C125.836 18.638 125.731 18.2507 125.521 17.994C125.316 17.7327 124.966 17.602 124.471 17.602C124.154 17.602 123.888 17.6417 123.673 17.721C123.459 17.7957 123.295 17.9403 123.183 18.155C123.076 18.365 123.018 18.673 123.008 19.079H121.503C121.452 18.421 121.545 17.882 121.783 17.462C122.026 17.0373 122.385 16.7247 122.861 16.524C123.342 16.3187 123.909 16.216 124.562 16.216C124.95 16.216 125.314 16.2603 125.654 16.349C126 16.433 126.305 16.58 126.571 16.79C126.837 16.9953 127.047 17.2777 127.201 17.637C127.355 17.9963 127.432 18.4513 127.432 19.002V24H125.815L125.836 22.285C125.748 22.803 125.524 23.2323 125.164 23.573C124.805 23.9137 124.296 24.084 123.638 24.084ZM124.079 22.838C124.322 22.838 124.567 22.796 124.814 22.712C125.066 22.628 125.286 22.5067 125.472 22.348C125.664 22.1893 125.785 22.0027 125.836 21.788V20.388C125.65 20.4067 125.428 20.4393 125.171 20.486C124.919 20.5327 124.702 20.5747 124.52 20.612C123.998 20.7193 123.62 20.8617 123.386 21.039C123.158 21.2117 123.043 21.4777 123.043 21.837C123.043 22.0423 123.09 22.222 123.183 22.376C123.281 22.5253 123.41 22.6397 123.568 22.719C123.727 22.7983 123.897 22.838 124.079 22.838ZM131.993 24.084C131.335 24.084 130.785 23.9137 130.341 23.573C129.898 23.2323 129.564 22.7657 129.34 22.173C129.116 21.5757 129.004 20.8967 129.004 20.136C129.004 19.2727 129.149 18.5517 129.438 17.973C129.732 17.3897 130.11 16.951 130.572 16.657C131.034 16.363 131.527 16.216 132.049 16.216C132.558 16.216 132.957 16.3 133.246 16.468C133.536 16.636 133.748 16.832 133.883 17.056C134.019 17.28 134.105 17.4807 134.142 17.658L134.625 17.721L134.051 18.316C134.014 18.1993 133.939 18.0873 133.827 17.98C133.72 17.868 133.564 17.777 133.358 17.707C133.158 17.637 132.896 17.602 132.574 17.602C132.028 17.602 131.578 17.8027 131.223 18.204C130.869 18.6053 130.691 19.261 130.691 20.171C130.691 20.9877 130.852 21.62 131.174 22.068C131.501 22.516 131.926 22.74 132.448 22.74C132.803 22.74 133.09 22.6817 133.309 22.565C133.533 22.4483 133.706 22.3153 133.827 22.166C133.949 22.012 134.023 21.886 134.051 21.788L134.121 22.026L134.051 22.278C134.028 22.4273 133.981 22.6047 133.911 22.81C133.841 23.0107 133.729 23.209 133.575 23.405C133.426 23.601 133.223 23.7643 132.966 23.895C132.71 24.021 132.385 24.084 131.993 24.084ZM134.058 24L134.051 13.108H135.696V24H134.058ZM140.754 24.105C140.049 24.105 139.436 23.9533 138.913 23.65C138.39 23.3467 137.984 22.901 137.695 22.313C137.406 21.7203 137.261 20.9947 137.261 20.136C137.261 19.324 137.413 18.624 137.716 18.036C138.024 17.448 138.444 16.9977 138.976 16.685C139.508 16.3677 140.11 16.209 140.782 16.209C141.51 16.209 142.133 16.3677 142.651 16.685C143.174 16.9977 143.575 17.448 143.855 18.036C144.135 18.624 144.275 19.324 144.275 20.136C144.275 20.9947 144.119 21.7203 143.806 22.313C143.498 22.901 143.078 23.3467 142.546 23.65C142.014 23.9533 141.417 24.105 140.754 24.105ZM140.782 22.698C141.319 22.698 141.757 22.4973 142.098 22.096C142.439 21.6947 142.609 21.0413 142.609 20.136C142.609 19.296 142.443 18.666 142.112 18.246C141.781 17.826 141.328 17.616 140.754 17.616C140.217 17.616 139.779 17.8237 139.438 18.239C139.102 18.6543 138.934 19.2867 138.934 20.136C138.934 20.9993 139.104 21.6433 139.445 22.068C139.79 22.488 140.236 22.698 140.782 22.698Z"
    fill="black" />
  <path
    d="M19.8085 25.2709C20.8738 25.0545 21.6755 24.1126 21.6755 22.9834C21.6755 21.6942 20.6304 20.6491 19.3412 20.6491H16.9767M19.8085 25.2709C19.6575 25.3016 19.5012 25.3177 19.3412 25.3177H18.9934V26.4354C19.3908 26.3609 20.26 26.346 20.558 26.8824C20.856 27.4189 20.8643 27.851 20.8312 28H12.9127M19.8085 25.2709L21.3031 25.6904C21.621 25.8294 22.7032 27.3957 23.1999 28C23.1999 28 24.3677 28 25.0578 28C25.164 26.5477 24.2753 26.5478 23.7123 26.0345L23.8452 17.8135C23.8452 16.7395 23.8452 16.6941 23.8452 16.4295C23.8452 16.165 23.3375 13.6468 23.1999 13.4785C22.7985 10.7115 25.2565 12.2282 25.1776 10.4666C25.5262 10.0703 24.3139 8.31477 23.7123 7.6603C23.9362 7.10819 23.54 4.99006 23.314 4L21.1851 6.17141C21.1749 6.17127 21.1646 6.1712 21.1544 6.1712C20.7975 6.1712 20.4472 6.21971 20.1121 6.3107C20.0279 5.40197 19.756 3.704 19.3412 4.18189C18.9264 4.65979 17.9651 7.29182 17.5363 8.5481C17.3869 8.92783 17.3045 9.33912 17.3045 9.77125C17.3045 10.8309 17.0743 12.1646 17.4831 13.1976H17.4537C13.284 13.1976 9.90378 16.4019 9.90378 20.3547C9.90378 22.3858 11.4792 24.858 12.9127 26.1607V28M12.9127 28C10.7459 27.9507 7.75373 27.7549 6.9439 22.9834C6.29628 19.1676 7.33137 17.5335 10.6043 14.2606C12.1075 12.7575 13.4552 10.5374 11.4423 8.5481"
    stroke="black" stroke-linecap="round" stroke-linejoin="round" />
</svg>