<svg width="178" height="32" viewBox="0 0 178 32" fill="none" xmlns="http://www.w3.org/2000/svg">
  <path
    d="M32.4659 24.18C31.0259 24.18 29.9099 23.904 29.1179 23.352C28.3379 22.8 27.9479 22.008 27.9479 20.976V20.922H29.8919V21.066C29.8919 21.642 30.0839 22.044 30.4679 22.272C30.8519 22.5 31.5179 22.614 32.4659 22.614C33.3179 22.614 33.9059 22.524 34.2299 22.344C34.5659 22.164 34.7339 21.87 34.7339 21.462C34.7339 21.102 34.6079 20.844 34.3559 20.688C34.1159 20.532 33.6719 20.406 33.0239 20.31L30.5759 19.986C28.7639 19.758 27.8579 18.948 27.8579 17.556C27.8579 16.752 28.2179 16.104 28.9379 15.612C29.6579 15.12 30.6899 14.874 32.0339 14.874C33.4259 14.874 34.5059 15.15 35.2739 15.702C36.0419 16.254 36.4259 17.052 36.4259 18.096V18.15H34.4999V18.042C34.4999 17.478 34.3139 17.07 33.9419 16.818C33.5819 16.554 32.9279 16.422 31.9799 16.422C31.1759 16.422 30.6059 16.518 30.2699 16.71C29.9339 16.89 29.7659 17.196 29.7659 17.628C29.7659 17.976 29.8799 18.234 30.1079 18.402C30.3479 18.558 30.8039 18.678 31.4759 18.762L33.5459 19.05C34.6139 19.182 35.3939 19.446 35.8859 19.842C36.3899 20.226 36.6419 20.784 36.6419 21.516C36.6419 22.344 36.2639 22.998 35.5079 23.478C34.7519 23.946 33.7379 24.18 32.4659 24.18ZM43.9125 24H41.8605C39.7845 24 38.7465 22.992 38.7465 20.976V16.674H37.2345V15.054H38.7465V13.092H40.6725V15.054H43.9125V16.674H40.6725V20.868C40.6725 21.396 40.7985 21.762 41.0505 21.966C41.3025 22.158 41.7165 22.254 42.2925 22.254H43.9125V24ZM49.6285 24.18C48.1405 24.18 46.9585 23.778 46.0825 22.974C45.2065 22.158 44.7685 21.012 44.7685 19.536C44.7685 18.132 45.2065 17.004 46.0825 16.152C46.9705 15.3 48.1405 14.874 49.5925 14.874C51.0085 14.874 52.1365 15.252 52.9765 16.008C53.8285 16.752 54.2545 17.79 54.2545 19.122C54.2545 19.446 54.2305 19.728 54.1825 19.968H46.5865C46.6225 20.856 46.8745 21.522 47.3425 21.966C47.8225 22.398 48.5665 22.614 49.5745 22.614C51.3385 22.614 52.2205 22.056 52.2205 20.94V20.796H54.1645V20.958C54.1645 21.906 53.7385 22.68 52.8865 23.28C52.0465 23.88 50.9605 24.18 49.6285 24.18ZM49.5565 16.404C47.6965 16.404 46.7125 17.232 46.6045 18.888H52.4185V18.852C52.4185 17.22 51.4645 16.404 49.5565 16.404ZM57.6545 27.06H55.7105V15.054H57.4925V17.538H57.6545C57.8345 16.698 58.2425 16.044 58.8785 15.576C59.5145 15.108 60.3485 14.874 61.3805 14.874C62.7485 14.874 63.8105 15.3 64.5665 16.152C65.3345 16.992 65.7185 18.12 65.7185 19.536C65.7185 20.952 65.3405 22.08 64.5845 22.92C63.8285 23.76 62.7665 24.18 61.3985 24.18C60.4025 24.18 59.5865 23.94 58.9505 23.46C58.3145 22.98 57.9065 22.32 57.7265 21.48H57.6545V27.06ZM57.6545 19.68C57.6545 20.58 57.9245 21.264 58.4645 21.732C59.0045 22.188 59.7605 22.416 60.7325 22.416C61.7405 22.416 62.4965 22.194 63.0005 21.75C63.5165 21.306 63.7745 20.568 63.7745 19.536C63.7745 18.504 63.5165 17.766 63.0005 17.322C62.4965 16.878 61.7525 16.656 60.7685 16.656C58.6925 16.656 57.6545 17.61 57.6545 19.518V19.68ZM69.01 24H67.066V11.94H69.01V17.79H69.118C69.286 16.95 69.676 16.254 70.288 15.702C70.9 15.15 71.74 14.874 72.808 14.874C73.996 14.874 74.902 15.222 75.526 15.918C76.162 16.614 76.48 17.532 76.48 18.672V24H74.554V19.14C74.554 18.24 74.344 17.598 73.924 17.214C73.504 16.818 72.826 16.62 71.89 16.62C70.87 16.62 70.132 16.878 69.676 17.394C69.232 17.91 69.01 18.666 69.01 19.662V24ZM80.8561 24.18C79.9201 24.18 79.1821 23.976 78.6421 23.568C78.1021 23.148 77.8321 22.572 77.8321 21.84C77.8321 20.52 78.7921 19.752 80.7121 19.536L84.7801 19.104V18.582C84.7801 17.85 84.6001 17.334 84.2401 17.034C83.8921 16.734 83.2861 16.584 82.4221 16.584C81.5821 16.584 80.9581 16.734 80.5501 17.034C80.1541 17.322 79.9561 17.79 79.9561 18.438V18.51H78.0301V18.438C78.0301 17.394 78.4381 16.542 79.2541 15.882C80.0701 15.21 81.1741 14.874 82.5661 14.874C83.9341 14.874 84.9601 15.21 85.6441 15.882C86.3401 16.542 86.6881 17.436 86.6881 18.564V24H84.9061V21.768H84.7801C84.5401 22.524 84.0781 23.118 83.3941 23.55C82.7101 23.97 81.8641 24.18 80.8561 24.18ZM79.7761 21.714C79.7761 22.422 80.3101 22.776 81.3781 22.776C82.4341 22.776 83.2621 22.572 83.8621 22.164C84.4741 21.744 84.7801 21.108 84.7801 20.256L81.2701 20.652C80.7421 20.724 80.3581 20.838 80.1181 20.994C79.8901 21.138 79.7761 21.378 79.7761 21.714ZM90.3674 24H88.4234V15.054H90.2054V17.826H90.3314C90.4754 16.998 90.8654 16.302 91.5014 15.738C92.1374 15.162 92.9894 14.874 94.0574 14.874C95.2454 14.874 96.1574 15.228 96.7934 15.936C97.4414 16.632 97.7654 17.526 97.7654 18.618V24H95.8214V19.14C95.8214 18.288 95.6114 17.658 95.1914 17.25C94.7834 16.83 94.1234 16.62 93.2114 16.62C91.3154 16.62 90.3674 17.604 90.3674 19.572V24ZM101.442 14.01H99.4977V11.94H101.442V14.01ZM101.442 24H99.4977V15.054H101.442V24ZM105.87 24.18C104.934 24.18 104.196 23.976 103.656 23.568C103.116 23.148 102.846 22.572 102.846 21.84C102.846 20.52 103.806 19.752 105.726 19.536L109.794 19.104V18.582C109.794 17.85 109.614 17.334 109.254 17.034C108.906 16.734 108.3 16.584 107.436 16.584C106.596 16.584 105.972 16.734 105.564 17.034C105.168 17.322 104.97 17.79 104.97 18.438V18.51H103.044V18.438C103.044 17.394 103.452 16.542 104.268 15.882C105.084 15.21 106.188 14.874 107.58 14.874C108.948 14.874 109.974 15.21 110.658 15.882C111.354 16.542 111.702 17.436 111.702 18.564V24H109.92V21.768H109.794C109.554 22.524 109.092 23.118 108.408 23.55C107.724 23.97 106.878 24.18 105.87 24.18ZM104.79 21.714C104.79 22.422 105.324 22.776 106.392 22.776C107.448 22.776 108.276 22.572 108.876 22.164C109.488 21.744 109.794 21.108 109.794 20.256L106.284 20.652C105.756 20.724 105.372 20.838 105.132 20.994C104.904 21.138 104.79 21.378 104.79 21.714ZM115.381 24H113.437V15.054H115.219V17.826H115.345C115.489 16.998 115.879 16.302 116.515 15.738C117.151 15.162 118.003 14.874 119.071 14.874C120.259 14.874 121.171 15.228 121.807 15.936C122.455 16.632 122.779 17.526 122.779 18.618V24H120.835V19.14C120.835 18.288 120.625 17.658 120.205 17.25C119.797 16.83 119.137 16.62 118.225 16.62C116.329 16.62 115.381 17.604 115.381 19.572V24ZM129.011 24.18C127.523 24.18 126.341 23.778 125.465 22.974C124.589 22.158 124.151 21.012 124.151 19.536C124.151 18.132 124.589 17.004 125.465 16.152C126.353 15.3 127.523 14.874 128.975 14.874C130.391 14.874 131.519 15.252 132.359 16.008C133.211 16.752 133.637 17.79 133.637 19.122C133.637 19.446 133.613 19.728 133.565 19.968H125.969C126.005 20.856 126.257 21.522 126.725 21.966C127.205 22.398 127.949 22.614 128.957 22.614C130.721 22.614 131.603 22.056 131.603 20.94V20.796H133.547V20.958C133.547 21.906 133.121 22.68 132.269 23.28C131.429 23.88 130.343 24.18 129.011 24.18ZM128.939 16.404C127.079 16.404 126.095 17.232 125.987 18.888H131.801V18.852C131.801 17.22 130.847 16.404 128.939 16.404ZM140.835 24H138.459L134.283 15.054H136.425L139.611 22.11H139.755L142.941 15.054H145.047L140.835 24ZM148.673 24.18C147.737 24.18 146.999 23.976 146.459 23.568C145.919 23.148 145.649 22.572 145.649 21.84C145.649 20.52 146.609 19.752 148.529 19.536L152.597 19.104V18.582C152.597 17.85 152.417 17.334 152.057 17.034C151.709 16.734 151.103 16.584 150.239 16.584C149.399 16.584 148.775 16.734 148.367 17.034C147.971 17.322 147.773 17.79 147.773 18.438V18.51H145.847V18.438C145.847 17.394 146.255 16.542 147.071 15.882C147.887 15.21 148.991 14.874 150.383 14.874C151.751 14.874 152.777 15.21 153.461 15.882C154.157 16.542 154.505 17.436 154.505 18.564V24H152.723V21.768H152.597C152.357 22.524 151.895 23.118 151.211 23.55C150.527 23.97 149.681 24.18 148.673 24.18ZM147.593 21.714C147.593 22.422 148.127 22.776 149.195 22.776C150.251 22.776 151.079 22.572 151.679 22.164C152.291 21.744 152.597 21.108 152.597 20.256L149.087 20.652C148.559 20.724 148.175 20.838 147.935 20.994C147.707 21.138 147.593 21.378 147.593 21.714ZM160.182 24.18C158.79 24.18 157.71 23.76 156.942 22.92C156.174 22.068 155.79 20.94 155.79 19.536C155.79 18.12 156.162 16.992 156.906 16.152C157.662 15.3 158.712 14.874 160.056 14.874C161.076 14.874 161.898 15.114 162.522 15.594C163.146 16.062 163.554 16.692 163.746 17.484H163.854V11.94H165.798V24H164.016V21.426H163.89C163.698 22.314 163.284 22.998 162.648 23.478C162.012 23.946 161.19 24.18 160.182 24.18ZM157.752 19.536C157.752 20.568 158.004 21.306 158.508 21.75C159.012 22.182 159.768 22.398 160.776 22.398C161.748 22.398 162.504 22.164 163.044 21.696C163.584 21.228 163.854 20.538 163.854 19.626V19.482C163.854 17.586 162.816 16.638 160.74 16.638C159.756 16.638 159.012 16.86 158.508 17.304C158.004 17.748 157.752 18.492 157.752 19.536ZM175.767 22.902C174.855 23.754 173.655 24.18 172.167 24.18C170.679 24.18 169.479 23.754 168.567 22.902C167.655 22.038 167.199 20.916 167.199 19.536C167.199 18.144 167.655 17.022 168.567 16.17C169.479 15.306 170.679 14.874 172.167 14.874C173.655 14.874 174.855 15.306 175.767 16.17C176.691 17.022 177.153 18.144 177.153 19.536C177.153 20.916 176.691 22.038 175.767 22.902ZM172.167 22.452C173.235 22.452 174.015 22.212 174.507 21.732C174.999 21.24 175.245 20.508 175.245 19.536C175.245 18.564 174.999 17.832 174.507 17.34C174.015 16.836 173.235 16.584 172.167 16.584C170.127 16.584 169.107 17.568 169.107 19.536C169.107 20.508 169.353 21.24 169.845 21.732C170.337 22.212 171.111 22.452 172.167 22.452Z"
    fill="black" />
  <path
    d="M19.8085 25.2709C20.8738 25.0545 21.6755 24.1126 21.6755 22.9834C21.6755 21.6942 20.6304 20.6491 19.3412 20.6491H16.9767M19.8085 25.2709C19.6575 25.3016 19.5012 25.3177 19.3412 25.3177H18.9934V26.4354C19.3908 26.3609 20.26 26.346 20.558 26.8824C20.856 27.4189 20.8643 27.851 20.8312 28H12.9127M19.8085 25.2709L21.3031 25.6904C21.621 25.8294 22.7032 27.3957 23.1999 28C23.1999 28 24.3677 28 25.0578 28C25.164 26.5477 24.2753 26.5478 23.7123 26.0345L23.8452 17.8135C23.8452 16.7395 23.8452 16.6941 23.8452 16.4295C23.8452 16.165 23.3375 13.6468 23.1999 13.4785C22.7985 10.7115 25.2565 12.2282 25.1776 10.4666C25.5262 10.0703 24.3139 8.31477 23.7123 7.6603C23.9362 7.10819 23.54 4.99006 23.314 4L21.1851 6.17141C21.1749 6.17127 21.1646 6.1712 21.1544 6.1712C20.7975 6.1712 20.4472 6.21971 20.1121 6.3107C20.0279 5.40197 19.756 3.704 19.3412 4.18189C18.9264 4.65979 17.9651 7.29182 17.5363 8.5481C17.3869 8.92783 17.3045 9.33912 17.3045 9.77125C17.3045 10.8309 17.0743 12.1646 17.4831 13.1976H17.4537C13.284 13.1976 9.90378 16.4019 9.90378 20.3547C9.90378 22.3858 11.4792 24.858 12.9127 26.1607V28M12.9127 28C10.7459 27.9507 7.75373 27.7549 6.9439 22.9834C6.29628 19.1676 7.33137 17.5335 10.6043 14.2606C12.1075 12.7575 13.4552 10.5374 11.4423 8.5481"
    stroke="black" stroke-linecap="round" stroke-linejoin="round" />
</svg>