<svg width="426" height="374" viewBox="0 0 426 374" fill="none" xmlns="http://www.w3.org/2000/svg">
<g filter="url(#filter0_d)">
<path d="M213 11L413 361H13L213 11Z" fill="#020C1B"/>
<path d="M213 11L413 361H13L213 11Z" stroke="#F64C72" stroke-width="10"/>
</g>
<path d="M215.462 317.056C201.446 317.056 188.966 314.656 178.022 309.856C167.078 305.056 158.438 298.528 152.102 290.272C145.766 281.824 142.214 272.416 141.446 262.048H190.118C190.694 267.616 193.286 272.128 197.894 275.584C202.502 279.04 208.166 280.768 214.886 280.768C221.03 280.768 225.734 279.616 228.998 277.312C232.454 274.816 234.182 271.648 234.182 267.808C234.182 263.2 231.782 259.84 226.982 257.728C222.182 255.424 214.406 252.928 203.654 250.24C192.134 247.552 182.534 244.768 174.854 241.888C167.174 238.816 160.55 234.112 154.982 227.776C149.414 221.248 146.63 212.512 146.63 201.568C146.63 192.352 149.126 184 154.118 176.512C159.302 168.832 166.79 162.784 176.582 158.368C186.566 153.952 198.374 151.744 212.006 151.744C232.166 151.744 248.006 156.736 259.526 166.72C271.238 176.704 277.958 189.952 279.686 206.464H234.182C233.414 200.896 230.918 196.48 226.694 193.216C222.662 189.952 217.286 188.32 210.566 188.32C204.806 188.32 200.39 189.472 197.318 191.776C194.246 193.888 192.71 196.864 192.71 200.704C192.71 205.312 195.11 208.768 199.91 211.072C204.902 213.376 212.582 215.68 222.95 217.984C234.854 221.056 244.55 224.128 252.038 227.2C259.526 230.08 266.054 234.88 271.622 241.6C277.382 248.128 280.358 256.96 280.55 268.096C280.55 277.504 277.862 285.952 272.486 293.44C267.302 300.736 259.718 306.496 249.734 310.72C239.942 314.944 228.518 317.056 215.462 317.056Z" fill="#F64C72"/>
<defs>
<filter id="filter0_d" x="0.384277" y="0.922119" width="425.232" height="373.078" filterUnits="userSpaceOnUse" color-interpolation-filters="sRGB">
<feFlood flood-opacity="0" result="BackgroundImageFix"/>
<feColorMatrix in="SourceAlpha" type="matrix" values="0 0 0 0 0 0 0 0 0 0 0 0 0 0 0 0 0 0 127 0" result="hardAlpha"/>
<feOffset dy="4"/>
<feGaussianBlur stdDeviation="2"/>
<feComposite in2="hardAlpha" operator="out"/>
<feColorMatrix type="matrix" values="0 0 0 0 0 0 0 0 0 0 0 0 0 0 0 0 0 0 0.25 0"/>
<feBlend mode="normal" in2="BackgroundImageFix" result="effect1_dropShadow"/>
<feBlend mode="normal" in="SourceGraphic" in2="effect1_dropShadow" result="shape"/>
</filter>
</defs>
</svg>
