<svg width="450" height="371" viewBox="0 0 450 371" fill="none" xmlns="http://www.w3.org/2000/svg">
<g filter="url(#filter0_d)">
<path d="M225 10L436.31 357.25H13.6898L225 10Z" fill="#020C1B"/>
<path d="M225 10L436.31 357.25H13.6898L225 10Z" stroke="#64FFDA" stroke-width="10"/>
</g>
<path d="M227.435 314.304C213.419 314.304 200.939 311.904 189.995 307.104C179.051 302.304 170.411 295.776 164.075 287.52C157.739 279.072 154.187 269.664 153.419 259.296H202.091C202.667 264.864 205.259 269.376 209.867 272.832C214.475 276.288 220.139 278.016 226.859 278.016C233.003 278.016 237.707 276.864 240.971 274.56C244.427 272.064 246.155 268.896 246.155 265.056C246.155 260.448 243.755 257.088 238.955 254.976C234.155 252.672 226.379 250.176 215.627 247.488C204.107 244.8 194.507 242.016 186.827 239.136C179.147 236.064 172.523 231.36 166.955 225.024C161.387 218.496 158.603 209.76 158.603 198.816C158.603 189.6 161.099 181.248 166.091 173.76C171.275 166.08 178.763 160.032 188.555 155.616C198.539 151.2 210.347 148.992 223.979 148.992C244.139 148.992 259.979 153.984 271.499 163.968C283.211 173.952 289.931 187.2 291.659 203.712H246.155C245.387 198.144 242.891 193.728 238.667 190.464C234.635 187.2 229.259 185.568 222.539 185.568C216.779 185.568 212.363 186.72 209.291 189.024C206.219 191.136 204.683 194.112 204.683 197.952C204.683 202.56 207.083 206.016 211.883 208.32C216.875 210.624 224.555 212.928 234.923 215.232C246.827 218.304 256.523 221.376 264.011 224.448C271.499 227.328 278.027 232.128 283.595 238.848C289.355 245.376 292.331 254.208 292.523 265.344C292.523 274.752 289.835 283.2 284.459 290.688C279.275 297.984 271.691 303.744 261.707 307.968C251.915 312.192 240.491 314.304 227.435 314.304Z" fill="#64FFDA"/>
<defs>
<filter id="filter0_d" x="0.794205" y="0.381714" width="448.412" height="369.868" filterUnits="userSpaceOnUse" color-interpolation-filters="sRGB">
<feFlood flood-opacity="0" result="BackgroundImageFix"/>
<feColorMatrix in="SourceAlpha" type="matrix" values="0 0 0 0 0 0 0 0 0 0 0 0 0 0 0 0 0 0 127 0" result="hardAlpha"/>
<feOffset dy="4"/>
<feGaussianBlur stdDeviation="2"/>
<feComposite in2="hardAlpha" operator="out"/>
<feColorMatrix type="matrix" values="0 0 0 0 0 0 0 0 0 0 0 0 0 0 0 0 0 0 0.25 0"/>
<feBlend mode="normal" in2="BackgroundImageFix" result="effect1_dropShadow"/>
<feBlend mode="normal" in="SourceGraphic" in2="effect1_dropShadow" result="shape"/>
</filter>
</defs>
</svg>
