<svg width="24" height="24" viewBox="0 0 24 24" fill="none" xmlns="http://www.w3.org/2000/svg">
<path d="M23.9443 10.8801C23.9772 11.2428 24 11.6086 24 11.9801C24 11.6086 23.9772 11.243 23.9443 10.8801Z" fill="#E6F1FF"/>
<path d="M6.14129 10.8169C6.14129 10.8169 2.80409 23.0913 16.1799 23.1981C20.3766 21.6386 23.469 17.815 23.9377 13.2053C23.9701 12.8865 23.9797 12.5612 23.9869 12.2354C23.9883 12.1497 23.9998 12.0664 23.9998 11.9801C23.9998 11.6089 23.977 11.2428 23.9441 10.8802C20.4103 24.7672 4.77698 19.3278 6.14129 10.8169Z" fill="#E6F1FF"/>
<path d="M13.0578 6.26089C13.0578 6.26089 0.604106 2.78906 0.795644 16.3447C1.43403 17.9828 2.42474 19.4611 3.69787 20.6754C3.75137 20.7258 3.80674 20.7736 3.86078 20.8233C4.2209 21.1547 4.60093 21.4639 4.99877 21.7491C5.06057 21.7932 5.11862 21.8418 5.18068 21.8848C5.60151 22.1721 6.04032 22.4322 6.49443 22.6635C6.62631 22.7313 6.76194 22.7933 6.89569 22.8566C7.28647 23.0402 7.68699 23.2025 8.09548 23.3426C8.19579 23.3768 8.29156 23.4195 8.39322 23.4513C8.88294 23.6008 9.38181 23.7185 9.88673 23.8038C10.0395 23.8305 10.1938 23.8529 10.3485 23.8743C10.8723 23.9498 11.4005 23.9907 11.9297 23.9969C11.95 23.9969 11.9696 24.0001 11.9899 24.0001C12.389 24.0001 12.7831 23.9787 13.1718 23.9405C-0.801396 20.6139 4.50976 5.01647 13.0578 6.26089Z" fill="#E6F1FF"/>
<path d="M17.912 12.6893C17.912 12.6893 20.8583 0.289363 7.5957 0.843211C3.14833 2.59689 0 6.91658 0 11.9789C0.00413572 12.5241 0.0453379 13.0683 0.123322 13.6079C2.91453 -0.420973 18.8162 4.12251 17.912 12.6893Z" fill="#E6F1FF"/>
<path d="M11.5438 18.0254C11.5438 18.0254 24.0192 19.6512 23.2383 7.81075C21.5404 3.25312 17.1565 0 11.9999 0C11.2698 0.00281676 10.5414 0.0719095 9.82373 0.206425C23.7247 1.9099 20.1117 18.1467 11.5438 18.0254Z" fill="#E6F1FF"/>
<path d="M15.4633 11.9804C15.4633 12.6441 15.2661 13.2929 14.8967 13.8447C14.5273 14.3965 14.0023 14.8266 13.3881 15.0805C12.7738 15.3344 12.0979 15.4008 11.4459 15.2713C10.7938 15.1417 10.1949 14.822 9.72484 14.3527C9.2548 13.8833 8.93475 13.2853 8.80518 12.6344C8.6756 11.9834 8.74232 11.3087 8.99689 10.6956C9.25146 10.0825 9.68245 9.55854 10.2354 9.18997C10.7883 8.8214 11.4382 8.62479 12.1031 8.625C12.9944 8.62521 13.8491 8.97883 14.4792 9.60808C15.1094 10.2373 15.4634 11.0907 15.4633 11.9804V11.9804Z" fill="#E6F1FF"/>
</svg>
