<svg width="24" height="24" viewBox="0 0 24 24" fill="none" xmlns="http://www.w3.org/2000/svg">
<g clipPath="url(#clip0)">
<path d="M23.5446 7.48706L12.5759 0.174561C12.2015 -0.0558292 11.8019 -0.0579385 11.4241 0.174561L0.455344 7.48706C0.174094 7.67451 0 8.00939 0 8.34417V15.6566C0 15.9915 0.174094 16.3263 0.455391 16.5138L11.4241 23.8273C11.7985 24.0577 12.1981 24.0598 12.5759 23.8273L23.5447 16.5138C23.8259 16.3263 24 15.9915 24 15.6566V8.34417C24 8.00939 23.8259 7.67451 23.5446 7.48706V7.48706ZM13.0312 2.9602L21.1072 8.34417L17.5045 10.7549L13.0312 7.76826V2.9602ZM10.9688 2.9602V7.76826L6.49552 10.7549L2.89284 8.34417L10.9688 2.9602ZM2.0625 10.2727L4.64733 12.0004L2.0625 13.7281V10.2727ZM10.9688 21.0406L2.89284 15.6567L6.49552 13.2459L10.9688 16.2326V21.0406ZM12 14.4379L8.35711 12.0004L12 9.56292L15.6429 12.0004L12 14.4379ZM13.0312 21.0406V16.2326L17.5045 13.2459L21.1072 15.6567L13.0312 21.0406ZM21.9375 13.7281L19.3527 12.0004L21.9375 10.2727V13.7281Z" fill="#E6F1FF"/>
</g>
<defs>
<clipPath id="clip0">
<rect width="24" height="24" fill="white"/>
</clipPath>
</defs>
</svg>
