<svg width="449" height="371" viewBox="0 0 449 371" fill="none" xmlns="http://www.w3.org/2000/svg">
<g filter="url(#filter0_d)">
<path d="M224.31 10L435.62 357.25H13L224.31 10Z" fill="#020C1B"/>
<path d="M224.31 10L435.62 357.25H13L224.31 10Z" stroke="#F64C72" stroke-width="10"/>
</g>
<path d="M226.745 314.304C212.729 314.304 200.249 311.904 189.305 307.104C178.361 302.304 169.721 295.776 163.385 287.52C157.049 279.072 153.497 269.664 152.729 259.296H201.401C201.977 264.864 204.569 269.376 209.177 272.832C213.785 276.288 219.449 278.016 226.169 278.016C232.313 278.016 237.017 276.864 240.281 274.56C243.737 272.064 245.465 268.896 245.465 265.056C245.465 260.448 243.065 257.088 238.265 254.976C233.465 252.672 225.689 250.176 214.937 247.488C203.417 244.8 193.817 242.016 186.137 239.136C178.457 236.064 171.833 231.36 166.265 225.024C160.697 218.496 157.913 209.76 157.913 198.816C157.913 189.6 160.409 181.248 165.401 173.76C170.585 166.08 178.073 160.032 187.865 155.616C197.849 151.2 209.657 148.992 223.289 148.992C243.449 148.992 259.289 153.984 270.809 163.968C282.521 173.952 289.241 187.2 290.969 203.712H245.465C244.697 198.144 242.201 193.728 237.977 190.464C233.945 187.2 228.569 185.568 221.849 185.568C216.089 185.568 211.673 186.72 208.601 189.024C205.529 191.136 203.993 194.112 203.993 197.952C203.993 202.56 206.393 206.016 211.193 208.32C216.185 210.624 223.865 212.928 234.233 215.232C246.137 218.304 255.833 221.376 263.321 224.448C270.809 227.328 277.337 232.128 282.905 238.848C288.665 245.376 291.641 254.208 291.833 265.344C291.833 274.752 289.145 283.2 283.769 290.688C278.585 297.984 271.001 303.744 261.017 307.968C251.225 312.192 239.801 314.304 226.745 314.304Z" fill="#F64C72"/>
<defs>
<filter id="filter0_d" x="0.104492" y="0.381714" width="448.412" height="369.868" filterUnits="userSpaceOnUse" color-interpolation-filters="sRGB">
<feFlood flood-opacity="0" result="BackgroundImageFix"/>
<feColorMatrix in="SourceAlpha" type="matrix" values="0 0 0 0 0 0 0 0 0 0 0 0 0 0 0 0 0 0 127 0" result="hardAlpha"/>
<feOffset dy="4"/>
<feGaussianBlur stdDeviation="2"/>
<feComposite in2="hardAlpha" operator="out"/>
<feColorMatrix type="matrix" values="0 0 0 0 0 0 0 0 0 0 0 0 0 0 0 0 0 0 0.25 0"/>
<feBlend mode="normal" in2="BackgroundImageFix" result="effect1_dropShadow"/>
<feBlend mode="normal" in="SourceGraphic" in2="effect1_dropShadow" result="shape"/>
</filter>
</defs>
</svg>
